<svg width="241" height="57" viewBox="0 0 241 57" fill="none" xmlns="http://www.w3.org/2000/svg">
<path d="M61.99 39C62.73 39 63.25 38.79 63.55 38.37C63.85 37.95 64 37.48 64 36.96V23.22C64 22.72 63.85 22.26 63.55 21.84C63.25 21.42 62.73 21.21 61.99 21.21H54.97L54.94 40.77C54.94 41.21 54.77 41.56 54.43 41.82C54.09 42.08 53.67 42.21 53.17 42.21C51.99 42.21 51.4 41.73 51.4 40.77V19.98C51.4 19.26 51.58 18.78 51.94 18.54C52.32 18.3 52.77 18.18 53.29 18.18H62.74C63.26 18.18 63.8 18.29 64.36 18.51C64.92 18.73 65.46 19.01 65.98 19.35H65.95C66.47 19.73 66.87 20.23 67.15 20.85C67.43 21.45 67.57 22.15 67.57 22.95V37.2C67.57 38.82 67.03 40.03 65.95 40.83C65.43 41.21 64.89 41.51 64.33 41.73C63.79 41.93 63.26 42.03 62.74 42.03H57.7C57.36 42.03 57.09 41.89 56.89 41.61C56.71 41.33 56.62 40.96 56.62 40.5C56.62 39.5 57.05 39 57.91 39H61.99ZM75.1429 37.2C75.1429 37.68 75.2929 38.13 75.5929 38.55C75.9129 38.97 76.4429 39.18 77.1829 39.18H80.9329C81.6729 39.18 82.1929 39 82.4929 38.64C82.8129 38.26 82.9729 37.83 82.9729 37.35V37.02C82.9729 36.08 83.5229 35.61 84.6229 35.61C85.7229 35.61 86.2729 36.08 86.2729 37.02V37.38C86.2729 38.22 86.1329 38.91 85.8529 39.45C85.5929 39.99 85.1929 40.46 84.6529 40.86C83.5929 41.62 82.5329 42 81.4729 42H76.4329C75.3729 42 74.3429 41.62 73.3429 40.86C72.8629 40.46 72.4929 39.96 72.2329 39.36C71.9729 38.74 71.8429 38.03 71.8429 37.23V28.68C71.8429 27.06 72.3429 25.86 73.3429 25.08C73.8429 24.72 74.3529 24.44 74.8729 24.24C75.4129 24.02 75.9329 23.91 76.4329 23.91H81.4729C81.9529 23.91 82.4829 24.01 83.0629 24.21C83.6429 24.39 84.1829 24.64 84.6829 24.96C85.1629 25.3 85.5429 25.77 85.8229 26.37C86.1229 26.97 86.2729 27.68 86.2729 28.5V32.55C86.2729 33.01 86.1329 33.42 85.8529 33.78C85.5929 34.14 85.1029 34.32 84.3829 34.32H77.9029C77.1829 34.32 76.8029 33.85 76.7629 32.91C76.7629 31.97 77.1429 31.5 77.9029 31.5H83.0029L82.9729 28.71C82.9729 28.21 82.8129 27.76 82.4929 27.36C82.1929 26.94 81.6729 26.73 80.9329 26.73H77.1829C76.4429 26.73 75.9129 26.94 75.5929 27.36C75.2929 27.76 75.1429 28.21 75.1429 28.71V37.2ZM93.3948 37.2C93.3948 37.68 93.5448 38.13 93.8448 38.55C94.1648 38.97 94.6948 39.18 95.4348 39.18H99.1848C99.9248 39.18 100.445 39 100.745 38.64C101.065 38.26 101.225 37.83 101.225 37.35V37.02C101.225 36.08 101.775 35.61 102.875 35.61C103.975 35.61 104.525 36.08 104.525 37.02V37.38C104.525 38.22 104.385 38.91 104.105 39.45C103.845 39.99 103.445 40.46 102.905 40.86C101.845 41.62 100.785 42 99.7248 42H94.6848C93.6248 42 92.5948 41.62 91.5948 40.86C91.1148 40.46 90.7448 39.96 90.4848 39.36C90.2248 38.74 90.0948 38.03 90.0948 37.23V28.68C90.0948 27.06 90.5948 25.86 91.5948 25.08C92.0948 24.72 92.6048 24.44 93.1248 24.24C93.6648 24.02 94.1848 23.91 94.6848 23.91H99.7248C100.205 23.91 100.735 24.01 101.315 24.21C101.895 24.39 102.435 24.64 102.935 24.96C103.415 25.3 103.795 25.77 104.075 26.37C104.375 26.97 104.525 27.68 104.525 28.5V32.55C104.525 33.01 104.385 33.42 104.105 33.78C103.845 34.14 103.355 34.32 102.635 34.32H96.1548C95.4348 34.32 95.0548 33.85 95.0148 32.91C95.0148 31.97 95.3948 31.5 96.1548 31.5H101.255L101.225 28.71C101.225 28.21 101.065 27.76 100.745 27.36C100.445 26.94 99.9248 26.73 99.1848 26.73H95.4348C94.6948 26.73 94.1648 26.94 93.8448 27.36C93.5448 27.76 93.3948 28.21 93.3948 28.71V37.2ZM114.407 42C113.687 42 113.307 41.53 113.267 40.59C113.267 39.65 113.647 39.18 114.407 39.18H117.437C118.177 39.18 118.697 38.97 118.997 38.55C119.317 38.13 119.477 37.68 119.477 37.2V28.74C119.477 28.24 119.317 27.78 118.997 27.36C118.697 26.92 118.167 26.72 117.407 26.76H111.647V44.79C111.647 45.73 111.097 46.2 109.997 46.2C108.897 46.2 108.347 45.72 108.347 44.76V25.71C108.347 25.01 108.527 24.54 108.887 24.3C109.247 24.06 109.687 23.94 110.207 23.94H117.977C118.497 23.94 119.017 24.03 119.537 24.21C120.077 24.39 120.627 24.64 121.187 24.96C121.667 25.3 122.047 25.78 122.327 26.4C122.627 27 122.777 27.71 122.777 28.53V37.41C122.777 39.05 122.247 40.22 121.187 40.92C120.067 41.64 118.997 42 117.977 42H114.407Z" fill="#1D39DC"/>
<path d="M130.38 40.74C130.38 41.7 129.79 42.18 128.61 42.18C127.43 42.18 126.84 41.7 126.84 40.74V19.98C126.84 19.52 126.97 19.11 127.23 18.75C127.49 18.37 127.99 18.18 128.73 18.18H138.93C139.65 18.18 140.03 18.68 140.07 19.68C140.11 20.7 139.73 21.21 138.93 21.21H130.38V40.74ZM138.06 29.61C138.06 29.95 137.99 30.28 137.85 30.6C137.73 30.9 137.55 31.16 137.31 31.38C137.09 31.6 136.83 31.78 136.53 31.92C136.23 32.04 135.9 32.1 135.54 32.1C134.86 32.1 134.28 31.86 133.8 31.38C133.32 30.9 133.08 30.31 133.08 29.61C133.08 28.91 133.32 28.32 133.8 27.84C134.28 27.36 134.86 27.12 135.54 27.12C135.9 27.12 136.23 27.19 136.53 27.33C136.83 27.45 137.09 27.63 137.31 27.87C137.55 28.09 137.73 28.35 137.85 28.65C137.99 28.95 138.06 29.27 138.06 29.61ZM157.494 37.23C157.494 38.03 157.354 38.74 157.074 39.36C156.794 39.98 156.394 40.48 155.874 40.86H155.904C155.404 41.2 154.874 41.48 154.314 41.7C153.754 41.9 153.214 42 152.694 42H147.864C147.364 42 146.824 41.9 146.244 41.7C145.684 41.48 145.154 41.2 144.654 40.86H144.684C144.164 40.48 143.764 39.98 143.484 39.36C143.204 38.74 143.064 38.03 143.064 37.23V25.2C143.064 24.24 143.614 23.76 144.714 23.76C145.814 23.76 146.364 24.24 146.364 25.2V36.99C146.364 37.55 146.504 38.04 146.784 38.46C147.044 38.94 147.584 39.18 148.404 39.18H152.154C152.954 39.18 153.484 38.94 153.744 38.46L153.714 38.49C154.034 38.01 154.194 37.51 154.194 36.99V25.2C154.194 24.24 154.744 23.76 155.844 23.76C156.944 23.76 157.494 24.24 157.494 25.2V37.23ZM164.557 40.74C164.557 41.7 164.007 42.18 162.907 42.18C161.807 42.18 161.257 41.7 161.257 40.74V28.68C161.257 27.86 161.387 27.15 161.647 26.55C161.907 25.95 162.317 25.46 162.877 25.08C163.937 24.32 164.997 23.94 166.057 23.94H170.887C171.907 23.94 172.967 24.32 174.067 25.08C175.147 25.84 175.687 27.04 175.687 28.68V40.74C175.687 41.7 175.137 42.18 174.037 42.18C172.937 42.18 172.387 41.7 172.387 40.74V28.95C172.387 28.43 172.227 27.93 171.907 27.45L171.937 27.48C171.677 27 171.147 26.76 170.347 26.76H166.597C165.777 26.76 165.237 27 164.977 27.48C164.697 27.9 164.557 28.39 164.557 28.95V40.74ZM190.698 26.76H184.908C184.088 26.76 183.548 27 183.288 27.48C183.008 27.9 182.868 28.39 182.868 28.95V37.59C182.868 38.11 183.028 38.51 183.348 38.79C183.668 39.05 184.198 39.18 184.938 39.18H188.028C188.748 39.18 189.108 39.65 189.108 40.59C189.108 40.99 189.018 41.33 188.838 41.61C188.678 41.87 188.408 42 188.028 42H184.398C183.138 42 182.018 41.68 181.038 41.04C180.058 40.44 179.568 39.3 179.568 37.62V28.68C179.568 27.86 179.698 27.15 179.958 26.55C180.218 25.95 180.628 25.46 181.188 25.08C182.248 24.32 183.308 23.94 184.368 23.94H190.698V19.44C190.698 18.48 191.248 18 192.348 18C193.448 18 193.998 18.48 193.998 19.44V40.74C193.998 41.7 193.448 42.18 192.348 42.18C191.928 42.18 191.548 42.11 191.208 41.97C190.868 41.81 190.698 41.47 190.698 40.95V26.76Z" fill="#F3C100"/>
<path d="M202.526 39.54C202.526 40.22 202.296 40.8 201.836 41.28C201.376 41.74 200.806 41.97 200.126 41.97C199.446 41.97 198.876 41.74 198.416 41.28C197.956 40.8 197.726 40.22 197.726 39.54C197.726 38.88 197.956 38.32 198.416 37.86C198.876 37.38 199.446 37.14 200.126 37.14C200.806 37.14 201.376 37.38 201.836 37.86C202.296 38.32 202.526 38.88 202.526 39.54ZM220.921 37.23C220.921 38.87 220.381 40.08 219.301 40.86C218.241 41.62 217.181 42 216.121 42H211.081C210.021 42 208.991 41.62 207.991 40.86C207.511 40.46 207.141 39.96 206.881 39.36C206.621 38.74 206.491 38.03 206.491 37.23V28.68C206.491 27.06 206.991 25.86 207.991 25.08C208.491 24.72 209.001 24.44 209.521 24.24C210.061 24.02 210.581 23.91 211.081 23.91H216.121C216.601 23.91 217.131 24.01 217.711 24.21C218.291 24.39 218.831 24.64 219.331 24.96C219.811 25.3 220.191 25.77 220.471 26.37C220.771 26.97 220.921 27.68 220.921 28.5V30C220.921 30.96 220.371 31.44 219.271 31.44C218.171 31.44 217.621 30.96 217.621 30V28.71C217.621 28.21 217.461 27.76 217.141 27.36C216.841 26.94 216.321 26.73 215.581 26.73H211.831C211.091 26.73 210.561 26.94 210.241 27.36C209.941 27.76 209.791 28.21 209.791 28.71V37.2C209.791 37.68 209.941 38.13 210.241 38.55C210.561 38.97 211.091 39.18 211.831 39.18H215.581C216.321 39.18 216.841 38.97 217.141 38.55C217.461 38.13 217.621 37.68 217.621 37.2V35.82C217.621 34.88 218.171 34.41 219.271 34.41C220.371 34.41 220.921 34.88 220.921 35.82V37.23ZM234.285 23.94C234.805 23.94 235.335 24.05 235.875 24.27C236.435 24.49 236.975 24.77 237.495 25.11H237.465C237.985 25.49 238.385 25.99 238.665 26.61C238.945 27.21 239.085 27.91 239.085 28.71V37.23C239.085 38.87 238.545 40.08 237.465 40.86C236.405 41.62 235.345 42 234.285 42H229.485C228.965 42 228.435 41.91 227.895 41.73C227.355 41.55 226.825 41.26 226.305 40.86C225.225 40.1 224.685 38.89 224.685 37.23V28.71C224.685 27.91 224.825 27.21 225.105 26.61C225.385 25.99 225.785 25.49 226.305 25.11H226.275C226.775 24.77 227.305 24.49 227.865 24.27C228.425 24.05 228.965 23.94 229.485 23.94H234.285ZM233.745 39.18C234.485 39.18 235.005 38.97 235.305 38.55C235.625 38.13 235.785 37.68 235.785 37.2V28.74C235.785 28.24 235.625 27.79 235.305 27.39C235.005 26.97 234.485 26.76 233.745 26.76H230.025C229.285 26.76 228.755 26.97 228.435 27.39C228.135 27.79 227.985 28.24 227.985 28.74V37.2C227.985 37.68 228.135 38.13 228.435 38.55C228.755 38.97 229.285 39.18 230.025 39.18H233.745Z" fill="black"/>
<path d="M44.3282 42.0378L44.3281 42.0384C43.8423 44.1293 41.8366 48.0149 38.5345 51.0883C35.2157 54.1772 30.5287 56.4961 24.7025 55.2906C19.0491 54.1208 14.9016 52.7077 12.1613 51.5831C10.7912 51.0209 9.77308 50.5309 9.09459 50.1795C8.75535 50.0039 8.50103 49.8629 8.33008 49.765C8.24461 49.716 8.17998 49.6778 8.136 49.6514C8.11401 49.6381 8.09718 49.6279 8.08549 49.6207L8.07181 49.6122L8.06786 49.6098L8.0666 49.609L8.06615 49.6087C8.06598 49.6086 8.06582 49.6085 8.33211 49.1853L8.06582 49.6085L7.99756 49.5655L7.94626 49.5033L1.61415 41.8201L1.41177 41.5746L1.54853 41.2873L2 41.5021C1.54853 41.2873 1.54861 41.2871 1.54871 41.2869L1.54895 41.2864L1.54965 41.2849L1.55188 41.2803L1.55969 41.2642C1.56637 41.2506 1.576 41.2311 1.58851 41.2062C1.61353 41.1565 1.65012 41.0852 1.69778 40.9961C1.79305 40.818 1.93292 40.568 2.1135 40.2761C2.47317 39.6946 3.00128 38.9353 3.66782 38.2454C4.33089 37.5591 5.15826 36.913 6.12103 36.6019C7.10441 36.2842 8.19913 36.327 9.33655 36.9734L9.34117 36.976C11.8913 38.4613 14.2259 40.2887 16.2799 42.4072C16.2858 42.4084 16.2919 42.4097 16.2982 42.411C16.3994 42.4324 16.55 42.4606 16.7399 42.4861C17.1207 42.5373 17.6542 42.577 18.2618 42.5312C19.4765 42.4395 20.9585 42.0099 22.136 40.6735C23.3484 39.2975 24.2774 36.9492 24.9071 34.8787C25.2184 33.8553 25.4504 32.9212 25.6046 32.243C25.6582 32.007 25.7024 31.8022 25.7371 31.6358C25.5272 31.5957 25.2578 31.5446 24.944 31.4856C24.1627 31.3388 23.1065 31.1437 22.0057 30.9501C20.9043 30.7564 19.7614 30.5647 18.8059 30.4247C17.8501 30.2846 17.1319 30.2042 16.8154 30.2105C16.8059 30.2143 16.7715 30.2275 16.7067 30.2673C16.6061 30.329 16.4759 30.427 16.3129 30.5654C15.9907 30.8388 15.5951 31.2223 15.1236 31.6794L15.1051 31.6973C14.1592 32.6142 12.9463 33.7877 11.6033 34.7284C10.2672 35.6642 8.73791 36.4166 7.15608 36.4099C5.53434 36.4032 3.96511 35.6012 2.57593 33.6596L2.36857 33.3698L2.57487 33.0792L2.98257 33.3687C2.57487 33.0792 2.57493 33.0791 2.57501 33.079L2.57532 33.0786L2.57648 33.0769L2.58087 33.0708L2.59786 33.047L2.66373 32.9551C2.72145 32.8748 2.8063 32.7573 2.91535 32.6078C3.13344 32.3088 3.44844 31.8815 3.83691 31.367C4.61347 30.3384 5.68538 28.9592 6.86485 27.5596C8.0426 26.162 9.33584 24.7341 10.5546 23.6134C11.1638 23.0532 11.7629 22.5619 12.3266 22.1882C12.883 21.8193 13.4403 21.5409 13.9618 21.4473C15.5272 21.1665 18.0219 21.1557 20.2728 21.2249L19.9403 21.1417L19.909 21.1339L19.879 21.1222L20.0615 20.6567C19.879 21.1222 19.8789 21.1221 19.8788 21.1221L19.8784 21.1219L19.8769 21.1213L19.8712 21.1191L19.8496 21.1106L19.7666 21.0775C19.6941 21.0485 19.5879 21.0057 19.4522 20.9503C19.1808 20.8393 18.7913 20.6775 18.3172 20.4735C17.3695 20.0656 16.0813 19.4881 14.7216 18.8097C13.3635 18.1321 11.9255 17.3499 10.6817 16.532C9.45039 15.7223 8.36015 14.8464 7.74542 13.9704C6.50448 12.2019 6.70606 10.1501 7.86173 8.88065C9.03845 7.58809 11.0832 7.22469 13.2669 8.56202L44.3282 42.0378ZM44.3282 42.0378C44.5882 40.9123 44.529 39.1779 44.3106 37.2594C44.0912 35.3332 43.7025 33.1553 43.2605 31.0867L42.9349 24.0657L42.9326 24.016L42.9206 23.9678L39.835 11.6052L39.8273 11.5573C39.8198 11.5119 39.8087 11.4465 39.7937 11.3646C39.7638 11.2009 39.7184 10.9703 39.6561 10.7C39.5323 10.1631 39.3384 9.45413 39.06 8.79906C38.7904 8.16467 38.4045 7.48964 37.8504 7.12227C37.5581 6.92854 37.2122 6.81618 36.8248 6.85144C36.4445 6.88607 36.0747 7.05833 35.7177 7.34134C34.5351 8.2777 33.6297 9.19269 33.2626 10.54C33.0547 11.3031 33.0277 12.1743 33.1821 13.2263L25.4986 3.56238L25.4872 3.54276C25.4669 3.50786 25.4374 3.45814 25.3994 3.39633C25.3235 3.27284 25.2133 3.10036 25.0741 2.90093C24.7978 2.50494 24.3981 1.98957 23.9167 1.54041C23.4425 1.09799 22.8448 0.677731 22.1698 0.543846C21.455 0.402075 20.7211 0.595221 20.0582 1.25001L20.0569 1.25124C18.6536 2.64701 18.3621 4.35027 18.6757 5.99312C18.9852 7.61486 19.8829 9.19459 20.8849 10.4532L20.8851 10.4534C21.4023 11.1025 21.8592 11.6795 22.2632 12.1919M44.3282 42.0378L22.2632 12.1919M22.2632 12.1919C22.0617 12.1202 21.8563 12.0473 21.6477 11.9732C20.557 11.5858 19.3791 11.1674 18.2144 10.732C16.1894 9.97487 14.3252 9.20878 13.267 8.56208L22.2632 12.1919Z" fill="#F3C100" stroke="white"/>
<circle cx="22.0753" cy="38.0753" r="12.5" transform="rotate(30 22.0753 38.0753)" fill="white"/>
<path d="M28.7579 43.877C28.3691 43.6525 28.2071 43.0352 28.4339 42.6423C28.6607 42.2495 29.2763 42.0811 29.6651 42.3056C30.0539 42.5301 30.216 43.1474 29.9892 43.5403C29.7624 43.9331 29.1467 44.1015 28.7579 43.877ZM28.8549 32.9335C28.7738 32.6249 28.6928 32.3162 29.0007 32.232C29.3085 32.1479 29.6163 32.0637 29.8917 32.4846C30.718 33.7473 32.5326 36.8901 31.269 40.8746C31.1556 41.071 30.7344 41.3516 30.5399 41.2394C30.3455 41.1271 30.0701 40.7062 30.1835 40.5098C31.2203 36.9181 29.4867 34.084 28.8549 32.9335ZM26.4896 38.3771L23.1037 42.4458C22.8769 42.8386 22.0669 42.8947 21.7915 42.4738L17.7736 39.1065C17.3847 38.882 17.2227 38.2647 17.7573 37.7877L21.1432 33.719C21.37 33.3262 22.1801 33.2701 22.4555 33.691L26.4734 37.0583C26.7488 37.4792 26.9109 38.0965 26.4896 38.3771ZM27.5263 28.5C22.2771 25.4694 15.5052 27.3212 12.5567 32.4281L11.8763 33.6066C9.73788 38.6574 11.4715 44.6342 16.5263 47.5526C18.8592 48.8995 21.257 49.2363 23.8005 48.8716C26.9597 48.3385 29.7948 46.5708 31.6093 43.4281C34.5577 38.3212 32.7755 31.5306 27.5263 28.5Z" fill="#1D39DC"/>
</svg>
