<svg width="45" height="57" viewBox="0 0 45 57" fill="none" xmlns="http://www.w3.org/2000/svg">
<path d="M44.3281 42.0384L44.3282 42.0378C44.5882 40.9123 44.529 39.1779 44.3106 37.2594C44.0912 35.3332 43.7025 33.1553 43.2605 31.0867L42.9349 24.0657L42.9326 24.016L42.9206 23.9678L39.835 11.6052L39.8273 11.5573C39.8198 11.5119 39.8087 11.4465 39.7937 11.3646C39.7638 11.2009 39.7184 10.9703 39.6561 10.7C39.5323 10.1631 39.3384 9.45413 39.06 8.79906C38.7904 8.16467 38.4045 7.48964 37.8504 7.12227C37.5581 6.92854 37.2122 6.81618 36.8248 6.85144C36.4445 6.88607 36.0747 7.05833 35.7177 7.34134C34.5351 8.2777 33.6297 9.19269 33.2626 10.54C33.0547 11.3031 33.0277 12.1743 33.1821 13.2263L25.4985 3.56237L25.4872 3.54276C25.4669 3.50786 25.4374 3.45814 25.3994 3.39633C25.3235 3.27284 25.2133 3.10036 25.0741 2.90093C24.7978 2.50494 24.3981 1.98957 23.9167 1.54041C23.4425 1.09799 22.8448 0.677731 22.1698 0.543846C21.455 0.402075 20.7211 0.595221 20.0582 1.25001L20.0569 1.25124C18.6536 2.64701 18.3621 4.35027 18.6757 5.99312C18.9852 7.61486 19.8829 9.19458 20.8849 10.4532L20.8851 10.4534C21.4023 11.1025 21.8592 11.6795 22.2632 12.1919C22.0617 12.1202 21.8563 12.0472 21.6477 11.9731C20.557 11.5858 19.3791 11.1674 18.2144 10.732C16.1897 9.97495 14.3256 9.20894 13.2673 8.56229C11.0835 7.22464 9.03853 7.58801 7.86173 8.88065C6.70606 10.1501 6.50448 12.2019 7.74542 13.9704C8.36015 14.8464 9.45039 15.7223 10.6817 16.532C11.9255 17.3499 13.3635 18.1321 14.7216 18.8097C16.0813 19.4881 17.3695 20.0656 18.3172 20.4735C18.7913 20.6775 19.1808 20.8393 19.4522 20.9503C19.5879 21.0057 19.6941 21.0485 19.7666 21.0775L19.8496 21.1106L19.8712 21.1191L19.8769 21.1213L19.8784 21.1219L19.8788 21.1221C19.8789 21.1221 19.879 21.1222 20.0615 20.6567L19.879 21.1222L19.909 21.1339L19.9403 21.1417L20.2728 21.2249C18.0219 21.1557 15.5272 21.1665 13.9618 21.4473C13.4403 21.5409 12.883 21.8193 12.3266 22.1882C11.7629 22.5619 11.1638 23.0532 10.5546 23.6134C9.33584 24.7341 8.0426 26.162 6.86485 27.5596C5.68538 28.9592 4.61347 30.3384 3.83691 31.367C3.44844 31.8815 3.13344 32.3088 2.91535 32.6078C2.8063 32.7573 2.72145 32.8748 2.66373 32.9551L2.59786 33.047L2.58087 33.0708L2.57648 33.0769L2.57532 33.0786L2.57501 33.079C2.57493 33.0791 2.57487 33.0792 2.98257 33.3687L2.57487 33.0792L2.36857 33.3698L2.57593 33.6596C3.96511 35.6012 5.53434 36.4032 7.15608 36.4099C8.73791 36.4166 10.2672 35.6642 11.6033 34.7284C12.9463 33.7877 14.1592 32.6142 15.1051 31.6973L15.1236 31.6794C15.5951 31.2223 15.9907 30.8388 16.3129 30.5654C16.4759 30.427 16.6061 30.329 16.7067 30.2673C16.7715 30.2275 16.8059 30.2143 16.8154 30.2105C17.1319 30.2042 17.8501 30.2846 18.8059 30.4247C19.7614 30.5647 20.9043 30.7564 22.0057 30.9501C23.1065 31.1437 24.1627 31.3388 24.944 31.4856C25.2578 31.5446 25.5272 31.5957 25.7371 31.6358C25.7024 31.8022 25.6582 32.007 25.6046 32.243C25.4504 32.9212 25.2184 33.8553 24.9071 34.8787C24.2774 36.9492 23.3484 39.2975 22.136 40.6735C20.9585 42.0099 19.4765 42.4395 18.2618 42.5312C17.6542 42.577 17.1207 42.5373 16.7399 42.4861C16.55 42.4606 16.3994 42.4324 16.2982 42.4111C16.2919 42.4097 16.2858 42.4084 16.2799 42.4072C14.2259 40.2887 11.8913 38.4613 9.34117 36.976L9.33655 36.9734C8.19913 36.327 7.10441 36.2842 6.12103 36.6019C5.15826 36.913 4.33089 37.5591 3.66782 38.2454C3.00128 38.9353 2.47317 39.6946 2.1135 40.2761C1.93292 40.568 1.79305 40.818 1.69778 40.9961C1.65012 41.0852 1.61353 41.1565 1.58851 41.2062C1.576 41.2311 1.56637 41.2506 1.55969 41.2642L1.55188 41.2803L1.54965 41.2849L1.54895 41.2864L1.54871 41.2869C1.54861 41.2871 1.54853 41.2873 2 41.5021L1.54853 41.2873L1.41177 41.5746L1.61415 41.8201L7.94626 49.5033L7.99756 49.5655L8.06582 49.6085L8.33211 49.1853C8.06582 49.6085 8.06598 49.6086 8.06615 49.6087L8.0666 49.609L8.06786 49.6098L8.07181 49.6122L8.08549 49.6207C8.09718 49.6279 8.11401 49.6381 8.136 49.6514C8.17998 49.6778 8.24461 49.716 8.33008 49.765C8.50103 49.8629 8.75535 50.0039 9.09459 50.1795C9.77308 50.5309 10.7912 51.0209 12.1613 51.5831C14.9016 52.7077 19.0491 54.1208 24.7025 55.2906C30.5287 56.4961 35.2157 54.1772 38.5345 51.0883C41.8366 48.0149 43.8423 44.1293 44.3281 42.0384Z" fill="#F3C100" stroke="white"/>
<circle cx="22.0753" cy="38.0753" r="12.5" transform="rotate(30 22.0753 38.0753)" fill="white"/>
<path d="M28.7579 43.877C28.3691 43.6525 28.2071 43.0352 28.4339 42.6423C28.6607 42.2495 29.2763 42.0811 29.6651 42.3056C30.054 42.5301 30.216 43.1474 29.9892 43.5403C29.7624 43.9331 29.1467 44.1015 28.7579 43.877ZM28.8549 32.9335C28.7738 32.6249 28.6928 32.3162 29.0007 32.232C29.3085 32.1479 29.6163 32.0637 29.8917 32.4846C30.718 33.7473 32.5326 36.8901 31.269 40.8746C31.1556 41.071 30.7344 41.3516 30.5399 41.2394C30.3455 41.1271 30.0701 40.7062 30.1835 40.5098C31.2203 36.9181 29.4867 34.084 28.8549 32.9335ZM26.4896 38.3771L23.1037 42.4458C22.8769 42.8386 22.0669 42.8947 21.7915 42.4738L17.7736 39.1065C17.3847 38.882 17.2227 38.2647 17.7573 37.7877L21.1432 33.719C21.37 33.3262 22.1801 33.2701 22.4555 33.691L26.4734 37.0583C26.7488 37.4792 26.9109 38.0965 26.4896 38.3771ZM27.5263 28.5C22.2771 25.4694 15.5052 27.3212 12.5567 32.4281L11.8763 33.6066C9.73788 38.6573 11.4715 44.6342 16.5263 47.5526C18.8592 48.8995 21.257 49.2363 23.8005 48.8716C26.9597 48.3385 29.7948 46.5708 31.6093 43.4281C34.5577 38.3212 32.7755 31.5306 27.5263 28.5Z" fill="#1D39DC"/>
</svg>
